<svg width="143" height="17" viewBox="0 0 143 17" fill="none" xmlns="http://www.w3.org/2000/svg">
<path d="M5.712 16H7.274V0.599999H6.306C5.734 0.599999 5.624 1.084 5.602 1.15L3.864 10.016L2.038 1.172C2.038 1.172 1.95 0.599999 1.334 0.599999H0.366V16H1.928V8.058L2.852 12.084C2.94 12.414 3.116 13.338 4.04 13.338H4.524L5.712 8.058V16ZM17.4846 16V9.598L19.3766 0.599999H18.2106C18.1666 0.599999 17.7706 0.621999 17.7046 1.128L16.6926 6.958L15.6806 1.128C15.6146 0.621999 15.2186 0.599999 15.1746 0.599999H14.0086L15.9006 9.598V15.538C15.9226 15.802 16.1206 16 16.3626 16H17.4846ZM28.9643 14.438V1.084C28.9643 0.819999 28.7443 0.621999 28.4803 0.599999H27.3803V16H31.1643C31.6703 16 31.9123 15.78 32.0223 15.582C32.0883 15.45 32.3523 14.834 32.5283 14.438H28.9643ZM41.06 14.438V1.084C41.06 0.819999 40.84 0.621999 40.576 0.599999H39.476V16H43.26C43.766 16 44.008 15.78 44.118 15.582C44.184 15.45 44.448 14.834 44.624 14.438H41.06ZM56.2137 16H54.4757L53.0897 5.396L51.7037 16H49.9657L52.2977 0.599999H53.1557C53.8157 0.599999 53.9257 1.018 53.9917 1.436L56.2137 16ZM81.0336 3.944C81.2316 3.834 81.4736 3.592 81.4736 3.086V2.492C81.4736 1.436 80.6156 0.467999 79.5596 0.446H78.5696C77.4696 0.446 76.5896 1.414 76.5896 2.492V4.076C76.5896 4.076 76.5236 5.11 77.2936 6.518L79.1856 10.06C79.1856 10.06 79.8676 11.248 79.8676 12.15V13.91C79.8676 14.394 79.4936 14.768 79.0316 14.768C78.5696 14.768 78.1956 14.394 78.1956 13.932V11.248C77.7996 11.424 77.1616 11.71 77.0296 11.754C76.8316 11.864 76.5896 12.106 76.5896 12.612V14.196C76.6116 15.252 77.4476 16.11 78.5036 16.154H79.4936C80.5936 16.154 81.4736 15.274 81.4736 14.196V12.238C81.4736 12.238 81.5396 11.204 80.7696 9.796L78.8776 6.232C78.8776 6.232 78.1956 5.066 78.1956 4.164V2.69C78.1956 2.206 78.5696 1.832 79.0316 1.832C79.4936 1.832 79.8676 2.206 79.8676 2.69V4.472C80.2856 4.296 80.9016 4.01 81.0336 3.944ZM94.907 16H93.169L91.783 5.396L90.397 16H88.659L90.991 0.599999H91.849C92.509 0.599999 92.619 1.018 92.685 1.436L94.907 16ZM106.536 3.944C106.734 3.834 106.976 3.592 106.976 3.086V2.492C106.976 1.436 106.118 0.467999 105.062 0.446H104.072C102.972 0.446 102.092 1.414 102.092 2.492V4.076C102.092 4.076 102.026 5.11 102.796 6.518L104.688 10.06C104.688 10.06 105.37 11.248 105.37 12.15V13.91C105.37 14.394 104.996 14.768 104.534 14.768C104.072 14.768 103.698 14.394 103.698 13.932V11.248C103.302 11.424 102.664 11.71 102.532 11.754C102.334 11.864 102.092 12.106 102.092 12.612V14.196C102.114 15.252 102.95 16.11 104.006 16.154H104.996C106.096 16.154 106.976 15.274 106.976 14.196V12.238C106.976 12.238 107.042 11.204 106.272 9.796L104.38 6.232C104.38 6.232 103.698 5.066 103.698 4.164V2.69C103.698 2.206 104.072 1.832 104.534 1.832C104.996 1.832 105.37 2.206 105.37 2.69V4.472C105.788 4.296 106.404 4.01 106.536 3.944ZM120.409 16H118.671L117.285 5.396L115.899 16H114.161L116.493 0.599999H117.351C118.011 0.599999 118.121 1.018 118.187 1.436L120.409 16ZM129.53 9.114L131.642 16H133.292L130.63 7.574L133.116 0.644H131.466L129.53 6.21V0.599999H128.474C128.298 0.621999 127.968 0.709999 127.968 1.194V16H129.53V9.114ZM141.335 0.599999V15.67C141.357 15.78 141.423 16 141.797 16H142.919V1.216C142.919 0.952 142.743 0.599999 142.281 0.599999H141.335Z" fill="#404040"/>
</svg>
